<?xml version="1.0" encoding="UTF-8"?>
<svg xmlns="http://www.w3.org/2000/svg" width="800" height="643" viewBox="0 0 800 643" direction="rtl">
<title>شهرستان‌های کردستان - kurdistan</title>
<desc>Counties of kurdistan province, 16 counties, LCC projection, simplified 10%</desc>
<g id="counties-kurdistan">
    <path id="sa-county-baneh" data-slug="baneh" data-parent="kurdistan" data-name-fa="بانه" class="county" d="M 15.38 165.66 L 22.29 174.75 L 27.64 179.53 L 32.58 179.63 L 33.78 183.91 L 44.21 191.57 L 47.72 201.95 L 50.79 201.43 L 52.01 206.55 L 57.55 211.42 L 57.18 215.36 L 62.75 223.59 L 69.02 238.06 L 71.89 233.29 L 79.19 233.18 L 79.98 229.05 L 88.32 235.70 L 97.10 233.11 L 102.06 235.59 L 103.14 229.38 L 107.37 227.23 L 117.98 232.69 L 123.92 233.42 L 126.79 226.48 L 130.63 230.07 L 133.01 228.15 L 143.78 230.82 L 153.82 223.98 L 163.60 224.10 L 165.98 227.41 L 175.52 229.84 L 171.70 223.53 L 174.14 216.04 L 183.71 197.73 L 188.54 186.39 L 191.42 172.28 L 171.69 167.97 L 147.75 168.77 L 146.01 151.73 L 129.72 146.43 L 100.82 122.17 L 100.32 119.07 L 102.99 101.54 L 79.74 100.48 L 64.68 94.77 L 60.00 95.48 L 57.65 98.37 L 60.61 104.56 L 49.64 108.51 L 46.29 113.29 L 44.60 121.96 L 45.98 129.70 L 37.65 136.18 L 27.24 133.69 L 25.30 137.64 L 19.98 140.17 L 20.19 145.91 L 25.08 149.92 L 15.78 159.49 L 15.38 165.66 Z " />
    <path id="sa-county-bijar" data-slug="bijar" data-parent="kurdistan" data-name-fa="بیجار" class="county" d="M 452.88 98.40 L 451.90 103.94 L 458.57 109.44 L 463.50 110.38 L 477.27 117.34 L 482.73 127.00 L 501.11 142.23 L 511.16 148.43 L 529.12 156.24 L 537.44 157.52 L 551.48 161.94 L 555.95 180.88 L 546.18 186.77 L 525.56 201.49 L 519.20 204.59 L 510.98 205.31 L 505.13 208.09 L 507.93 227.08 L 493.43 238.57 L 476.82 239.93 L 475.26 257.32 L 457.30 263.41 L 454.88 267.19 L 460.02 280.14 L 462.85 281.31 L 474.99 292.26 L 465.98 302.42 L 458.59 306.57 L 461.50 311.14 L 473.23 314.98 L 486.51 316.84 L 499.75 315.01 L 505.65 316.52 L 508.85 321.62 L 511.37 323.49 L 527.82 325.71 L 523.75 340.62 L 548.62 343.28 L 559.64 350.19 L 562.12 366.02 L 571.31 375.17 L 572.15 380.35 L 603.23 388.88 L 619.04 384.79 L 627.00 374.14 L 621.09 356.98 L 624.79 347.24 L 634.70 349.72 L 651.03 351.38 L 667.31 355.24 L 669.98 351.40 L 687.68 348.86 L 693.76 346.34 L 697.33 332.59 L 703.15 329.94 L 715.44 327.30 L 729.05 330.88 L 740.31 323.10 L 751.20 322.92 L 777.62 314.79 L 784.62 318.87 L 773.61 305.43 L 765.36 302.48 L 760.02 302.66 L 745.26 284.56 L 730.24 271.90 L 717.01 271.15 L 712.72 258.58 L 711.64 249.75 L 706.77 229.88 L 698.69 231.56 L 685.69 241.81 L 675.65 246.06 L 664.81 228.53 L 668.79 224.93 L 682.78 220.08 L 695.97 217.29 L 699.53 212.26 L 692.38 206.08 L 674.70 205.73 L 670.90 204.39 L 674.32 198.64 L 681.64 192.39 L 689.96 192.52 L 694.97 188.04 L 698.30 181.52 L 696.27 177.87 L 689.43 175.90 L 705.10 160.83 L 710.93 153.73 L 703.57 148.05 L 704.05 133.02 L 694.64 130.51 L 696.13 118.06 L 695.47 112.30 L 699.68 106.67 L 696.01 96.49 L 682.10 88.32 L 675.08 88.66 L 661.11 81.84 L 652.14 72.74 L 635.90 69.09 L 627.23 69.53 L 617.73 67.97 L 611.64 63.78 L 600.93 49.61 L 587.28 45.94 L 576.59 53.90 L 578.14 60.36 L 576.58 62.15 L 579.50 71.93 L 569.59 81.03 L 561.66 86.65 L 540.37 81.91 L 533.54 87.48 L 525.46 98.87 L 517.25 104.98 L 511.96 106.00 L 488.68 106.57 L 461.79 104.91 L 456.03 102.81 L 452.88 98.40 Z " />
    <path id="sa-county-dehgolan" data-slug="dehgolan" data-parent="kurdistan" data-name-fa="دهگلان" class="county" d="M 508.85 321.62 L 503.29 337.70 L 497.98 341.14 L 486.62 359.86 L 478.99 369.37 L 467.88 381.07 L 458.55 383.25 L 453.94 400.75 L 455.04 405.49 L 450.28 407.50 L 443.41 414.54 L 457.03 425.59 L 453.50 429.18 L 451.73 435.52 L 457.83 446.25 L 448.21 460.27 L 440.18 465.95 L 445.79 479.41 L 446.94 491.28 L 459.11 493.36 L 470.93 497.31 L 482.03 505.01 L 495.60 516.23 L 495.30 527.19 L 498.53 535.24 L 496.31 538.18 L 505.87 538.42 L 507.97 534.84 L 508.18 526.41 L 519.40 524.04 L 527.13 527.63 L 539.68 528.69 L 549.82 523.25 L 555.46 516.27 L 555.64 511.39 L 551.12 499.81 L 544.49 492.77 L 537.50 489.92 L 527.13 483.50 L 527.47 470.83 L 542.19 474.95 L 550.31 474.42 L 550.45 469.99 L 560.18 454.65 L 561.26 448.27 L 567.90 438.35 L 570.43 429.37 L 584.82 416.33 L 584.50 409.54 L 572.58 404.34 L 572.15 380.35 L 571.31 375.17 L 562.12 366.02 L 559.64 350.19 L 548.62 343.28 L 523.75 340.62 L 527.82 325.71 L 511.37 323.49 L 508.85 321.62 Z " />
    <path id="sa-county-divandarreh" data-slug="divandarreh" data-parent="kurdistan" data-name-fa="دیواندره" class="county" d="M 284.30 233.56 L 286.66 242.27 L 296.70 263.26 L 293.53 291.46 L 310.39 295.43 L 312.15 307.95 L 325.68 314.96 L 330.26 329.48 L 349.81 320.63 L 355.15 319.26 L 366.31 322.16 L 381.35 320.08 L 391.16 314.79 L 391.69 298.62 L 396.47 300.89 L 416.64 300.92 L 441.87 292.17 L 450.48 291.40 L 450.25 296.47 L 458.59 306.57 L 465.98 302.42 L 474.99 292.26 L 462.85 281.31 L 460.02 280.14 L 454.88 267.19 L 457.30 263.41 L 475.26 257.32 L 476.82 239.93 L 493.43 238.57 L 507.93 227.08 L 505.13 208.09 L 510.98 205.31 L 519.20 204.59 L 525.56 201.49 L 546.18 186.77 L 555.95 180.88 L 551.48 161.94 L 537.44 157.52 L 529.12 156.24 L 511.16 148.43 L 501.11 142.23 L 482.73 127.00 L 477.27 117.34 L 463.50 110.38 L 458.57 109.44 L 451.90 103.94 L 452.88 98.40 L 449.77 96.86 L 438.89 84.24 L 423.29 73.02 L 404.07 69.65 L 400.07 63.36 L 396.62 67.62 L 379.50 78.53 L 366.02 93.89 L 362.56 106.63 L 378.38 110.48 L 387.34 117.76 L 381.57 148.30 L 362.42 167.07 L 358.16 178.44 L 353.26 180.18 L 350.11 177.36 L 351.14 185.44 L 339.02 187.81 L 336.24 191.36 L 320.65 188.94 L 305.34 185.28 L 302.07 200.49 L 295.71 208.13 L 295.81 211.67 L 288.10 215.97 L 284.99 219.97 L 284.30 233.56 Z " />
    <path id="sa-county-ghorveh" data-slug="ghorveh" data-parent="kurdistan" data-name-fa="قروه" class="county" d="M 572.15 380.35 L 572.58 404.34 L 584.50 409.54 L 584.82 416.33 L 570.43 429.37 L 567.90 438.35 L 561.26 448.27 L 560.18 454.65 L 550.45 469.99 L 550.31 474.42 L 542.19 474.95 L 527.47 470.83 L 527.13 483.50 L 537.50 489.92 L 544.49 492.77 L 551.12 499.81 L 555.64 511.39 L 555.46 516.27 L 549.82 523.25 L 558.96 525.23 L 562.28 523.48 L 575.02 522.95 L 587.99 524.52 L 603.03 529.70 L 613.78 528.68 L 618.39 534.09 L 624.07 535.69 L 634.26 546.22 L 636.19 550.79 L 634.29 558.26 L 643.53 573.28 L 654.97 577.93 L 667.10 575.95 L 667.51 569.91 L 676.44 563.84 L 689.83 567.72 L 691.59 564.48 L 701.97 559.64 L 710.81 568.50 L 715.28 568.62 L 722.88 565.10 L 729.89 567.08 L 735.17 560.24 L 740.96 555.85 L 747.13 524.50 L 744.73 519.44 L 738.32 518.37 L 736.16 515.16 L 745.14 499.61 L 739.79 492.13 L 738.12 485.26 L 730.65 476.27 L 721.75 475.95 L 722.62 471.04 L 720.10 460.34 L 713.85 449.99 L 704.36 425.33 L 695.97 425.89 L 685.56 422.38 L 681.26 417.59 L 677.07 402.62 L 670.32 391.15 L 664.74 366.60 L 667.31 355.24 L 651.03 351.38 L 634.70 349.72 L 624.79 347.24 L 621.09 356.98 L 627.00 374.14 L 619.04 384.79 L 603.23 388.88 L 572.15 380.35 Z " />
    <path id="sa-county-kamyaran" data-slug="kamyaran" data-parent="kurdistan" data-name-fa="کامیاران" class="county" d="M 268.56 516.45 L 270.03 523.80 L 269.08 535.31 L 275.38 544.52 L 267.28 554.60 L 272.35 559.05 L 270.81 562.39 L 274.21 567.67 L 284.20 571.05 L 294.30 580.84 L 299.05 578.39 L 309.43 582.98 L 318.18 591.03 L 322.18 599.87 L 320.83 601.34 L 326.14 617.22 L 329.44 622.06 L 337.24 626.99 L 354.48 623.19 L 367.95 618.78 L 377.74 623.27 L 382.16 622.53 L 384.28 618.44 L 396.53 620.47 L 410.98 627.62 L 411.35 622.37 L 417.60 615.68 L 416.23 612.65 L 428.56 609.93 L 433.92 612.49 L 437.72 611.43 L 440.08 611.01 L 435.65 603.78 L 428.63 602.31 L 421.92 583.15 L 421.94 577.71 L 429.36 578.21 L 433.74 573.99 L 439.28 576.94 L 444.88 575.23 L 450.64 576.62 L 453.17 565.79 L 451.38 555.26 L 456.29 554.97 L 456.09 563.65 L 458.44 566.22 L 472.38 558.81 L 472.85 567.37 L 480.89 569.86 L 494.50 564.98 L 497.47 559.72 L 492.11 555.77 L 486.72 548.17 L 496.31 538.18 L 498.53 535.24 L 495.30 527.19 L 495.60 516.23 L 482.03 505.01 L 470.93 497.31 L 459.11 493.36 L 446.94 491.28 L 445.55 501.80 L 433.56 508.95 L 420.50 510.83 L 418.30 520.06 L 406.64 518.21 L 398.01 523.20 L 383.90 519.20 L 379.05 513.24 L 369.54 511.37 L 358.38 528.27 L 354.86 520.78 L 352.72 530.13 L 347.56 527.86 L 343.30 518.63 L 332.54 510.47 L 329.35 509.77 L 312.82 497.62 L 306.37 506.69 L 302.71 502.62 L 295.78 504.04 L 291.21 507.39 L 285.22 504.92 L 277.76 506.27 L 274.69 504.78 L 268.56 516.45 Z " />
    <path id="sa-county-marivan" data-slug="marivan" data-parent="kurdistan" data-name-fa="مریوان" class="county" d="M 232.15 254.96 L 229.70 261.44 L 221.93 261.35 L 220.79 264.59 L 215.19 266.91 L 215.57 270.79 L 208.87 272.09 L 200.31 276.36 L 191.91 272.85 L 184.94 276.20 L 180.27 284.17 L 173.27 280.69 L 166.17 283.51 L 153.29 281.39 L 151.14 277.96 L 143.89 276.04 L 140.48 282.62 L 135.44 286.28 L 137.16 289.04 L 135.46 295.26 L 130.19 300.19 L 134.73 300.90 L 136.57 309.04 L 135.14 314.35 L 139.18 320.71 L 129.30 319.94 L 124.11 316.56 L 125.44 325.18 L 129.76 330.18 L 128.87 334.88 L 134.51 339.98 L 127.30 339.94 L 124.65 347.96 L 131.49 366.61 L 134.34 369.54 L 137.60 380.56 L 146.71 395.48 L 153.02 389.91 L 158.36 379.48 L 164.55 384.81 L 169.55 386.20 L 174.32 391.36 L 180.02 384.91 L 194.93 381.99 L 207.77 382.07 L 219.11 386.12 L 230.15 395.71 L 248.48 408.69 L 250.04 403.91 L 253.88 402.41 L 271.99 406.66 L 280.94 385.26 L 298.51 377.01 L 300.79 366.49 L 312.13 360.95 L 322.26 349.16 L 339.37 340.02 L 330.26 329.48 L 325.68 314.96 L 312.15 307.95 L 310.39 295.43 L 293.53 291.46 L 296.70 263.26 L 286.66 242.27 L 284.30 233.56 L 273.38 236.81 L 256.92 247.99 L 241.10 255.34 L 232.15 254.96 Z " />
    <path id="sa-county-sanandaj" data-slug="sanandaj" data-parent="kurdistan" data-name-fa="سنندج" class="county" d="M 248.48 408.69 L 249.14 416.43 L 254.59 437.42 L 267.65 455.12 L 278.52 456.57 L 291.65 455.36 L 304.47 459.35 L 311.64 467.32 L 311.97 474.01 L 307.32 485.56 L 312.82 497.62 L 329.35 509.77 L 332.54 510.47 L 343.30 518.63 L 347.56 527.86 L 352.72 530.13 L 354.86 520.78 L 358.38 528.27 L 369.54 511.37 L 379.05 513.24 L 383.90 519.20 L 398.01 523.20 L 406.64 518.21 L 418.30 520.06 L 420.50 510.83 L 433.56 508.95 L 445.55 501.80 L 446.94 491.28 L 445.79 479.41 L 440.18 465.95 L 448.21 460.27 L 457.83 446.25 L 451.73 435.52 L 453.50 429.18 L 457.03 425.59 L 443.41 414.54 L 450.28 407.50 L 455.04 405.49 L 453.94 400.75 L 458.55 383.25 L 467.88 381.07 L 478.99 369.37 L 486.62 359.86 L 497.98 341.14 L 503.29 337.70 L 508.85 321.62 L 505.65 316.52 L 499.75 315.01 L 486.51 316.84 L 473.23 314.98 L 461.50 311.14 L 458.59 306.57 L 450.25 296.47 L 450.48 291.40 L 441.87 292.17 L 416.64 300.92 L 396.47 300.89 L 391.69 298.62 L 391.16 314.79 L 381.35 320.08 L 366.31 322.16 L 355.15 319.26 L 349.81 320.63 L 330.26 329.48 L 339.37 340.02 L 322.26 349.16 L 312.13 360.95 L 300.79 366.49 L 298.51 377.01 L 280.94 385.26 L 271.99 406.66 L 253.88 402.41 L 250.04 403.91 L 248.48 408.69 Z " />
    <path id="sa-county-saqqez" data-slug="saqqez" data-parent="kurdistan" data-name-fa="سقز" class="county" d="M 102.99 101.54 L 100.32 119.07 L 100.82 122.17 L 129.72 146.43 L 146.01 151.73 L 147.75 168.77 L 171.69 167.97 L 191.42 172.28 L 188.54 186.39 L 183.71 197.73 L 174.14 216.04 L 171.70 223.53 L 175.52 229.84 L 175.44 236.20 L 179.85 242.99 L 185.69 245.32 L 188.23 241.65 L 196.11 248.13 L 203.11 241.72 L 206.69 243.79 L 215.84 241.05 L 218.91 235.61 L 225.70 241.43 L 233.00 241.80 L 234.20 253.35 L 232.15 254.96 L 241.10 255.34 L 256.92 247.99 L 273.38 236.81 L 284.30 233.56 L 284.99 219.97 L 288.10 215.97 L 295.81 211.67 L 295.71 208.13 L 302.07 200.49 L 305.34 185.28 L 320.65 188.94 L 336.24 191.36 L 339.02 187.81 L 351.14 185.44 L 350.11 177.36 L 353.26 180.18 L 358.16 178.44 L 362.42 167.07 L 381.57 148.30 L 387.34 117.76 L 378.38 110.48 L 362.56 106.63 L 366.02 93.89 L 379.50 78.53 L 396.62 67.62 L 400.07 63.36 L 399.66 56.85 L 394.10 50.79 L 389.93 42.06 L 384.43 34.76 L 377.37 38.54 L 364.13 40.42 L 349.61 44.71 L 330.07 44.65 L 319.87 45.68 L 300.50 42.57 L 298.85 39.57 L 289.01 35.18 L 278.71 35.50 L 274.23 39.57 L 268.62 50.92 L 265.28 54.72 L 254.84 50.12 L 236.70 47.30 L 227.56 39.63 L 207.20 26.80 L 203.56 20.38 L 194.62 15.38 L 184.99 16.91 L 180.43 19.83 L 171.07 21.33 L 169.23 26.05 L 161.89 26.42 L 158.82 22.78 L 148.45 23.16 L 144.97 34.45 L 137.21 37.28 L 138.42 48.20 L 143.04 58.05 L 142.59 65.20 L 144.30 75.78 L 140.38 79.96 L 123.17 88.83 L 112.65 98.05 L 102.99 101.54 Z " />
    <path id="sa-county-sarvabad" data-slug="sarvabad" data-parent="kurdistan" data-name-fa="سروآباد" class="county" d="M 146.71 395.48 L 152.04 397.64 L 151.96 400.85 L 161.37 406.94 L 166.02 414.77 L 169.14 424.94 L 175.98 430.19 L 181.43 439.62 L 185.13 441.77 L 190.88 449.80 L 198.39 454.25 L 207.82 461.89 L 227.78 471.95 L 228.20 474.47 L 242.21 486.43 L 247.57 492.99 L 247.48 505.56 L 255.66 508.96 L 261.45 513.84 L 268.56 516.45 L 274.69 504.78 L 277.76 506.27 L 285.22 504.92 L 291.21 507.39 L 295.78 504.04 L 302.71 502.62 L 306.37 506.69 L 312.82 497.62 L 307.32 485.56 L 311.97 474.01 L 311.64 467.32 L 304.47 459.35 L 291.65 455.36 L 278.52 456.57 L 267.65 455.12 L 254.59 437.42 L 249.14 416.43 L 248.48 408.69 L 230.15 395.71 L 219.11 386.12 L 207.77 382.07 L 194.93 381.99 L 180.02 384.91 L 174.32 391.36 L 169.55 386.20 L 164.55 384.81 L 158.36 379.48 L 153.02 389.91 L 146.71 395.48 Z " />
  </g>
</svg>
